<svg xmlns="http://www.w3.org/2000/svg" viewBox="0 0 32 32" fill="none" role="img" aria-label="Marksmith">
  <defs>
    <linearGradient id="spark" x1="8" y1="4" x2="26" y2="22" gradientUnits="userSpaceOnUse">
      <stop stop-color="#f0c9a0"/>
      <stop offset="0.55" stop-color="#e07a4a"/>
      <stop offset="1" stop-color="#8b5cf6"/>
    </linearGradient>
    <linearGradient id="anvil" x1="6" y1="14" x2="26" y2="28" gradientUnits="userSpaceOnUse">
      <stop stop-color="#52525b"/>
      <stop offset="1" stop-color="#27272a"/>
    </linearGradient>
  </defs>
  <rect width="32" height="32" rx="8" fill="#0c0c0e"/>
  <path d="M10 8.5c0-1.1.9-2 2-2h8c1.1 0 2 .9 2 2v1.2l2.2 1.4c.8.5 1.2 1.5.9 2.5l-1.1 3.6H7l-1.1-3.6c-.3-1 .1-2 1-2.5L10 9.7V8.5Z" fill="url(#spark)"/>
  <path d="M6 20h20l-1.6 5.2c-.2.7-.8 1.2-1.5 1.2H8.1c-.7 0-1.3-.5-1.5-1.2L6 20Z" fill="url(#anvil)"/>
  <path d="M8 18.5h16" stroke="#71717a" stroke-width="1.2" stroke-linecap="round"/>
  <circle cx="22" cy="9" r="1.2" fill="#fde68a" opacity=".9"/>
</svg>
